inDegrees=no
num_controls=7
num_derivatives=13
num_iterations=110
num_multipliers=7
num_parameters=0
num_slacks=7
num_states=26
objective=4.923943
objective_accelerations=0.547284
objective_balance=0.011362
objective_effort=0.150367
objective_height=4.188337
objective_ligament=0.026594
solver_duration=1224.401624
status=Solve_Succeeded
success=true
DataType=double
version=3
OpenSimVersion=4.4-2022-07-23-0e9fedc
endheader
time	/jointset/ground_pelvis/pelvis_tilt/value	/jointset/ground_pelvis/pelvis_tx/value	/jointset/ground_pelvis/pelvis_ty/value	/jointset/hip_l/hip_flexion_l/value	/jointset/hip_l/hip_adduction_l/value	/jointset/hip_l/hip_rotation_l/value	/jointset/back/lumbar_extension/value	/jointset/patellofemoral_l/patellar_flexion_l/value	/jointset/knee_l/knee_flexion_l/value	/jointset/knee_l/knee_adduction_l/value	/jointset/knee_l/knee_rotation_l/value	/jointset/ankle_l/ankle_angle_l/value	/jointset/subtalar_l/subtalar_angle_l/value	/jointset/ground_pelvis/pelvis_tilt/speed	/jointset/ground_pelvis/pelvis_tx/speed	/jointset/ground_pelvis/pelvis_ty/speed	/jointset/hip_l/hip_flexion_l/speed	/jointset/hip_l/hip_adduction_l/speed	/jointset/hip_l/hip_rotation_l/speed	/jointset/back/lumbar_extension/speed	/jointset/patellofemoral_l/patellar_flexion_l/speed	/jointset/knee_l/knee_flexion_l/speed	/jointset/knee_l/knee_adduction_l/speed	/jointset/knee_l/knee_rotation_l/speed	/jointset/ankle_l/ankle_angle_l/speed	/jointset/subtalar_l/subtalar_angle_l/speed	/forceset/tau_hip_flexion_l	/forceset/tau_hip_adduction_l	/forceset/tau_hip_rotation_l	/forceset/tau_knee_flexion_l	/forceset/tau_ankle_angle_l	/forceset/tau_subtalar_angle_l	/forceset/tau_lumbar_extension	lambda_cid13_p0	lambda_cid13_p1	lambda_cid13_p2	lambda_cid13_p3	lambda_cid13_p4	lambda_cid13_p5	lambda_cid14_p0	/jointset/ground_pelvis/pelvis_tilt/accel	/jointset/ground_pelvis/pelvis_tx/accel	/jointset/ground_pelvis/pelvis_ty/accel	/jointset/hip_l/hip_flexion_l/accel	/jointset/hip_l/hip_adduction_l/accel	/jointset/hip_l/hip_rotation_l/accel	/jointset/back/lumbar_extension/accel	/jointset/patellofemoral_l/patellar_flexion_l/accel	/jointset/knee_l/knee_flexion_l/accel	/jointset/knee_l/knee_adduction_l/accel	/jointset/knee_l/knee_rotation_l/accel	/jointset/ankle_l/ankle_angle_l/accel	/jointset/subtalar_l/subtalar_angle_l/accel	gamma_cid13_p0	gamma_cid13_p1	gamma_cid13_p2	gamma_cid13_p3	gamma_cid13_p4	gamma_cid13_p5	gamma_cid14_p0
1	-0.3494652581631863	0.02076817071260995	0.6589099953715681	1.424389634452161	-0.3641730533263751	0.1369978981552284	-0.4363182258155932	1.35052012078887	1.350520120788538	-0.02164746125435092	-0.1745130006041569	0.4351316080949978	0.2203994506342201	-0.1341723210847393	0.005262772475474181	0.02859265859278694	0.02911206272987683	-0.002056136183463127	-0.04397869936935807	-0.0005506606737741604	-0.1456563710563338	-0.1456563710563294	-0.01548212839036586	-0.0001030388884205412	-0.05345167665699515	-0.03342411673063064	-0.1874134564124175	0.03795869055334678	-0.0002011749762973041	-0.2820232984146166	-0.03687943566342901	0.01477236928221069	0.1778684540963278	-41.74065786683006	4.216934338746394	-4.750212378456737	3.919479372179162	-524.6248507169308	-74.73954785924417	-0.02460720749620558	1.284281127971453	0.2316094885341941	1.57674024423208	-5.432607765194878	-0.1771009284658661	-1.525644777437511	-0.02982812742282138	-4.907811571035771	-4.907811571035611	-0.5846106643045564	-0.02137100138499897	-1.183053209726639	-0.9390619405166366	-1.032229031743012e-08	-6.344367512449082e-08	7.309257125223691e-08	1.022261491200493e-08	-1.325043697156944e-08	-4.099328244794813e-08	-1.435104118691507e-08
1.01	-0.3507434945933712	0.02083242712768101	0.6592746004509286	1.424410027649247	-0.3642018878397024	0.1364815136668582	-0.4363240880250006	1.348818396372833	1.348818396372816	-0.02183024945709814	-0.1745139895834472	0.4345380790937202	0.2200193630363	-0.1214702900876032	0.00759800411419184	0.04432592841894385	-0.02504774368283453	-0.003710514683287186	-0.05929874069487245	-0.000597345366762993	-0.19470101910571	-0.1947010191056976	-0.02107680436853385	-9.479407813476129e-05	-0.06525683596402063	-0.04258658154640395	-0.1879467210402022	0.038082649870096	-0.0002380569757781323	-0.2811055787618111	-0.03717766691703544	0.01475634053775744	0.1782123796707119	-41.81900107334631	4.208743397021237	-4.715930473732262	3.801642491747104	-524.6073156037847	-74.57337225989068	-0.02462208642529801	1.263865655836297	0.235906264217218	1.571251933946163	-5.409815286968501	-0.1595804155861799	-1.535282588345674	0.01157673627832591	-4.904663719844513	-4.904663719843538	-0.5471032806890991	0.01193053124280632	-1.179659762314119	-0.9038140876077925	-1.286164042916936e-08	-7.928027879603256e-08	9.363252334626935e-08	1.112123120426912e-08	-2.037225752533885e-08	-4.578741964643828e-08	-1.868227043608856e-08
1.02	-0.351894570399505	0.02092032111167493	0.6597964645449774	1.423888393140691	-0.3642472609589506	0.1358119090091906	-0.4363296840043301	1.346625851016712	1.346625851017003	-0.02206902586320366	-0.1745148944526275	0.4338264160052213	0.2195478557231212	-0.1087401962804122	0.0099902862600452	0.06004446153047784	-0.07929347840194147	-0.005363857376640595	-0.07462273314989916	-0.0004974149990488778	-0.2438205590733236	-0.2438205590733039	-0.02667976899139588	-8.621690761815085e-05	-0.07707849411598935	-0.05170805978222878	-0.1884799856679067	0.03820660918525555	-0.0002749389786090677	-0.2801878591093692	-0.03747589817112729	0.01474031179049235	0.1785563052452047	-41.90334426452429	4.20114325758452	-4.681217752356605	3.688155456177625	-524.7183313683096	-74.3995738871629	-0.0246364481340559	1.289893689982343	0.2430195899614404	1.573792901307503	-5.449793426474159	-0.1768937671718562	-1.526435003340134	-0.0005051152729869737	-4.922789954683247	-4.922789954683214	-0.5862683932433477	-0.02130452933903473	-1.186352978715114	-0.9308646245269967	-1.673207972674087e-08	-9.66924070799165e-08	1.15974478764842e-07	1.407055423974515e-08	-2.871777929380285e-08	-4.962209802926297e-08	-2.363075703587781e-08
1.03	-0.3529184347031722	0.02103257394600205	0.6604754304533028	1.422823866014969	-0.3643091503400102	0.1349890550819314	-0.4363323061236468	1.343941642353454	1.343941642353585	-0.02236388158200424	-0.174515632695748	0.4329965978178561	0.2189854700892814	-0.09605082173784869	0.01248495907302493	0.07574536191448883	-0.1336273453821526	-0.007015294728198252	-0.08994845279102262	0.0001217889433265617	-0.293044095991455	-0.293044095991452	-0.03229729628089372	-5.943893240815631e-05	-0.08887455820833025	-0.06075410129121347	-0.1894276845163456	0.03843727390782128	-0.0003272779707664675	-0.2789023009527394	-0.03802604103831168	0.0147314163236112	0.179340842005999	-42.06746981490903	4.18915649357824	-4.628377283448145	3.497372203676549	-524.9776209064643	-74.18431151998504	-0.02465523988091605	1.255735988627702	0.256396323545431	1.567727408084292	-5.427493757718011	-0.1594767197947258	-1.535727268353423	0.1154529399248218	-4.925568175037413	-4.925568175039397	-0.550403679709875	0.01498896404287151	-1.174653778669389	-0.8892273229319423	-2.061610156702497e-08	-1.141206121455591e-07	1.383348219724405e-07	1.704080285423356e-08	-3.707578780935558e-08	-5.344698601600944e-08	-2.85855421800611e-08
1.04	-0.3538159499309705	0.02117051454777619	0.661311303125695	1.421215538134994	-0.3643875956946332	0.1340129265932867	-0.4363242722535308	1.340764511798084	1.34076451179783	-0.02271509433043781	-0.1745160391584867	0.4320491348587586	0.2183330733585822	-0.08347038110579448	0.01512783974944772	0.0914258143438095	-0.1880536293192067	-0.008675052105485826	-0.1052776453863637	0.001633784522890551	-0.3424049374959818	-0.3424049374959954	-0.03795117488669748	-1.986083354163113e-05	-0.100607448467736	-0.06971027915413482	-0.1903753833621336	0.03866793862986666	-0.0003796169635543904	-0.2776167427962256	-0.03857618390606254	0.01472252085557089	0.1801253787694681	-42.23778739105359	4.177869004442395	-4.575208795857756	3.31042122554208	-525.3681540550815	-73.96156614809047	-0.02467305595769269	1.268106907880442	0.2726611626501493	1.569703310369423	-5.468276817842968	-0.1785577723181066	-1.527129594183982	0.1780532121637832	-4.950250871962277	-4.950250871962192	-0.5935386565045667	-0.01874450460835774	-1.173718212127939	-0.912891895314665	-2.173402207625846e-08	-1.358579271733504e-07	1.61628591843438e-07	1.281591900221896e-08	-4.132896650109618e-08	-5.905599659475411e-08	-3.448230300794867e-08
